<?xml version="1.0" encoding="UTF-8" standalone="no"?>
<!DOCTYPE svg PUBLIC "-//W3C//DTD SVG 1.1//EN" "http://www.w3.org/Graphics/SVG/1.1/DTD/svg11.dtd">
<svg width="100%" height="100%" viewBox="0 0 3337 1184" version="1.1" xmlns="http://www.w3.org/2000/svg" xmlns:xlink="http://www.w3.org/1999/xlink" xml:space="preserve" xmlns:serif="http://www.serif.com/" style="fill-rule:evenodd;clip-rule:evenodd;stroke-linejoin:round;stroke-miterlimit:2;">
    <g transform="matrix(1,0,0,1,-85.84869,-1686.434194)">
        <g transform="matrix(1,0,0,1,-393.734919,-280.401422)">
            <path d="M1683.36,2679.297C1667.76,2739.297 1638.96,2856.897 1582.56,2925.297C1524.96,2996.097 1466.16,3010.497 1452.96,2906.097C1426.56,2696.097 1478.16,2096.097 1611.36,2046.897C1684.56,2019.297 1676.16,1954.497 1594.56,1968.897C1415.76,1998.897 1302.96,2267.697 1275.36,2530.497C1235.76,2565.297 1180.56,2584.497 1120.56,2588.097C1121.76,2436.897 1106.16,2280.897 1098.96,2159.697C1091.76,2040.897 926.16,2043.297 932.16,2180.097C936.96,2276.097 946.56,2416.497 946.56,2558.097C866.16,2523.297 801.36,2460.897 783.36,2372.097C768.96,2298.897 690.96,2313.297 706.56,2390.097C732.96,2516.097 830.16,2601.297 945.36,2640.897C939.36,2858.097 904.56,3056.097 791.76,3071.697C537.36,3107.697 466.56,2702.097 698.16,2674.497C773.76,2664.897 801.36,2727.297 802.56,2790.897C803.76,2876.097 881.76,2884.497 880.56,2792.097C879.36,2681.697 813.36,2578.497 683.76,2597.697C358.56,2644.497 432.96,3210.897 827.76,3144.897C1042.56,3108.897 1106.16,2900.097 1118.16,2666.097C1172.16,2663.697 1224.96,2651.697 1269.36,2628.897C1266.96,2746.497 1283.76,2856.897 1320.96,2936.097C1389.36,3081.297 1536.96,3098.097 1638.96,2978.097C1706.16,2900.097 1738.56,2778.897 1758.96,2698.497L1683.36,2679.297Z" style="fill-rule:nonzero;"/>
        </g>
        <g transform="matrix(1,0,0,1,-393.734919,-280.401422)">
            <path d="M2338.56,2679.297C2314.56,2772.897 2250.96,2799.297 2177.76,2805.297C2199.36,2733.297 2190.96,2651.697 2154.96,2586.897C2055.36,2414.097 1794.96,2430.897 1700.16,2598.897C1644.96,2696.097 1655.76,2825.697 1726.56,2909.697C1827.36,3028.497 2019.36,3018.897 2121.36,2907.297C2127.36,2900.097 2133.36,2892.897 2138.16,2885.697C2247.36,2885.697 2370.96,2867.697 2414.16,2698.497L2338.56,2679.297ZM1988.16,2807.697C1934.16,2813.697 1890.96,2832.897 1875.36,2890.497C1868.16,2879.697 1862.16,2865.297 1858.56,2846.097C1844.16,2788.497 1850.16,2706.897 1869.36,2642.097C1900.56,2537.697 1977.36,2494.497 2000.16,2626.497C2008.56,2680.497 2004.96,2750.097 1988.16,2807.697Z" style="fill-rule:nonzero;"/>
        </g>
        <g transform="matrix(1,0,0,1,-393.734919,-280.401422)">
            <path d="M3292.56,2679.297C3273.36,2754.897 3216.96,2915.697 3118.56,2914.497C3065.76,2914.497 3094.56,2778.897 3083.76,2663.697C3065.76,2448.897 2915.76,2441.697 2799.36,2604.897C2758.56,2441.697 2616.96,2459.697 2510.16,2625.297L2510.16,2618.097C2513.76,2483.697 2327.76,2484.897 2322.96,2618.097C2320.56,2694.897 2319.36,2800.497 2318.16,2867.697C2315.76,3003.297 2500.56,3000.897 2505.36,2867.697C2506.56,2837.697 2506.56,2814.897 2507.76,2793.297C2524.56,2750.097 2547.36,2702.097 2571.36,2664.897C2633.76,2566.497 2655.36,2559.297 2646.96,2669.697C2645.76,2696.097 2642.16,2771.697 2642.16,2837.697C2640.96,2987.697 2800.56,2991.297 2806.56,2832.897C2807.76,2799.297 2808.96,2763.297 2810.16,2732.097C2820.96,2708.097 2834.16,2685.297 2847.36,2664.897C2909.76,2566.497 2930.16,2559.297 2922.96,2669.697C2914.56,2784.897 2919.36,2992.497 3118.56,2992.497C3263.76,2993.697 3338.16,2816.097 3368.16,2698.497L3292.56,2679.297Z" style="fill-rule:nonzero;"/>
        </g>
        <g transform="matrix(1,0,0,1,-393.734919,-280.401422)">
            <path d="M3740.16,2679.297C3730.56,2716.497 3693.36,2790.897 3646.56,2846.097C3582.96,2922.897 3484.56,2961.297 3447.36,2852.097C3576.96,2843.697 3626.16,2746.497 3622.56,2655.297C3612.96,2422.497 3363.36,2460.897 3293.76,2634.897C3258.96,2717.697 3261.36,2822.097 3304.56,2897.697C3389.76,3045.297 3603.36,3036.897 3728.16,2876.097C3770.16,2822.097 3800.16,2757.297 3815.76,2698.497L3740.16,2679.297ZM3437.76,2650.497C3460.56,2540.097 3539.76,2544.897 3543.36,2654.097C3545.76,2708.097 3519.36,2769.297 3432.96,2774.097C3428.16,2732.097 3430.56,2686.497 3437.76,2650.497Z" style="fill-rule:nonzero;"/>
        </g>
    </g>
</svg>
